<svg width="154" height="34" viewBox="0 0 154 34" fill="none" xmlns="http://www.w3.org/2000/svg">
<path fill-rule="evenodd" clip-rule="evenodd" d="M33.3018 5.16095V10.1799C33.3183 11.5445 32.8031 12.8599 31.8695 13.8366C30.9358 14.8134 29.6603 15.3715 28.3236 15.3881H26.2828C25.5914 15.3126 25.0671 14.717 25.0671 14.0072C25.0671 13.2973 25.5914 12.7017 26.2828 12.6262H28.2617C28.8877 12.622 29.4862 12.3631 29.9244 11.9068C30.3627 11.4505 30.6045 10.8346 30.5963 10.1956V5.16095C30.5796 3.85186 29.5441 2.79476 28.2617 2.77776H23.3298C22.0405 2.77776 20.9953 3.84475 20.9953 5.16095V12.6893C20.9701 13.4527 20.352 14.0556 19.6039 14.0466C19.2443 14.0384 18.903 13.8836 18.6561 13.6167C18.4092 13.3498 18.2772 12.9931 18.2897 12.6262V5.16095C18.2856 3.79363 18.8148 2.48088 19.7605 1.51256C20.7061 0.544238 21.9904 -6.43284e-06 23.3298 0H28.2617C31.0237 0.0669493 33.2447 2.34125 33.3018 5.16095ZM9.98746 0H5.05557C2.27048 0.0172317 0.0168799 2.3178 0 5.16095V10.1956C0.0169544 13.0362 2.27298 15.3322 5.05557 15.3408H9.98746C11.3269 15.345 12.6128 14.8048 13.5614 13.8394C14.5099 12.874 15.043 11.563 15.043 10.1956V5.16095C15.0346 2.31423 12.7761 0.00866586 9.98746 0ZM12.3221 10.1955C12.3303 10.8345 12.0885 11.4504 11.6502 11.9067C11.212 12.363 10.6135 12.6219 9.98752 12.6261H5.05563C4.42035 12.6391 3.80732 12.3872 3.35802 11.9285C2.90871 11.4698 2.66197 10.844 2.67472 10.1955V5.16083C2.67459 4.52048 2.92691 3.90701 3.3748 3.45869C3.82269 3.01037 4.42848 2.76491 5.05563 2.77764H9.98752C11.2733 2.78624 12.3136 3.84821 12.3221 5.16083V10.1955ZM23.3298 17.9764H28.2617C31.0443 17.985 33.3003 20.281 33.3173 23.1215V28.1562C33.3004 30.9994 31.0468 33.3 28.2617 33.3172H23.3298C20.5473 33.2999 18.2982 30.9968 18.2897 28.1562V23.1215C18.2897 20.2799 20.5463 17.9764 23.3298 17.9764ZM29.9171 29.8459C30.3558 29.398 30.6004 28.7894 30.5963 28.1561V23.1214C30.5963 22.4893 30.3503 21.8831 29.9125 21.4362C29.4747 20.9893 28.8809 20.7382 28.2617 20.7382H23.3298C22.0405 20.7382 20.9953 21.8052 20.9953 23.1214V28.1561C20.9912 28.7894 21.2358 29.398 21.6745 29.8459C22.1132 30.2938 22.7094 30.5435 23.3298 30.5392H28.2617C28.8821 30.5435 29.4784 30.2938 29.9171 29.8459ZM0 28.1408V23.1219C-6.3015e-06 21.7545 0.533126 20.4435 1.48168 19.4781C2.43023 18.5127 3.71618 17.9725 5.05557 17.9767H7.0809C7.59873 17.9201 8.10278 18.1703 8.37904 18.6209C8.65531 19.0716 8.65531 19.6438 8.37904 20.0944C8.10278 20.5451 7.59873 20.7953 7.0809 20.7387H5.05557C3.76372 20.7387 2.71408 21.8031 2.70558 23.1219V28.0934C2.73843 29.4016 3.77393 30.4517 5.05557 30.4766H10.0184C10.6402 30.4808 11.238 30.2316 11.6792 29.7842C12.1203 29.3368 12.3684 28.7282 12.3684 28.0934V20.6282C12.2675 20.0707 12.5087 19.5066 12.9777 19.203C13.4467 18.8995 14.0494 18.9174 14.5003 19.2482C14.9513 19.5791 15.16 20.1565 15.0276 20.7071V28.1408C15.0276 30.9911 12.7641 33.3017 9.972 33.3017H5.05557C2.28759 33.2431 0.0574284 30.9664 0 28.1408Z" fill="#0D004D"/>
<path d="M50.3231 22.1826H48.925L43.3022 13.6562V22.1826H41.9041V11.4593H43.3022L48.925 19.9703V11.4593H50.3231V22.1826ZM55.026 11.4746V22.1826H53.628V11.4746H55.026ZM57.8082 16.8209C57.8082 15.7763 58.0438 14.8391 58.5149 14.0095C58.986 13.1697 59.6261 12.5142 60.4353 12.043C61.2546 11.5719 62.161 11.3364 63.1545 11.3364C64.3221 11.3364 65.3412 11.618 66.2117 12.1813C67.0823 12.7446 67.7173 13.5435 68.1167 14.5779H66.4422C66.1452 13.9327 65.715 13.436 65.1517 13.0877C64.5986 12.7395 63.9329 12.5654 63.1545 12.5654C62.4068 12.5654 61.736 12.7395 61.142 13.0877C60.5479 13.436 60.0819 13.9327 59.7439 14.5779C59.4059 15.2129 59.2369 15.9606 59.2369 16.8209C59.2369 17.671 59.4059 18.4187 59.7439 19.0639C60.0819 19.6989 60.5479 20.1906 61.142 20.5388C61.736 20.887 62.4068 21.0611 63.1545 21.0611C63.9329 21.0611 64.5986 20.8921 65.1517 20.5541C65.715 20.2059 66.1452 19.7092 66.4422 19.0639H68.1167C67.7173 20.0881 67.0823 20.8819 66.2117 21.4452C65.3412 21.9983 64.3221 22.2748 63.1545 22.2748C62.161 22.2748 61.2546 22.0444 60.4353 21.5835C59.6261 21.1123 58.986 20.462 58.5149 19.6324C58.0438 18.8028 57.8082 17.8656 57.8082 16.8209ZM75.9743 22.2902C74.9808 22.2902 74.0744 22.0597 73.2551 21.5988C72.4357 21.1277 71.7853 20.4773 71.304 19.6477C70.8328 18.8079 70.5973 17.8656 70.5973 16.8209C70.5973 15.7763 70.8328 14.8391 71.304 14.0095C71.7853 13.1697 72.4357 12.5193 73.2551 12.0584C74.0744 11.5873 74.9808 11.3517 75.9743 11.3517C76.978 11.3517 77.8896 11.5873 78.7089 12.0584C79.5283 12.5193 80.1735 13.1645 80.6447 13.9941C81.1158 14.8237 81.3514 15.766 81.3514 16.8209C81.3514 17.8759 81.1158 18.8181 80.6447 19.6477C80.1735 20.4773 79.5283 21.1277 78.7089 21.5988C77.8896 22.0597 76.978 22.2902 75.9743 22.2902ZM75.9743 21.0765C76.722 21.0765 77.3928 20.9024 77.9869 20.5541C78.5911 20.2059 79.0623 19.7092 79.4003 19.0639C79.7485 18.4187 79.9226 17.671 79.9226 16.8209C79.9226 15.9606 79.7485 15.2129 79.4003 14.5779C79.0623 13.9327 78.5963 13.436 78.0022 13.0877C77.4082 12.7395 76.7322 12.5654 75.9743 12.5654C75.2164 12.5654 74.5404 12.7395 73.9464 13.0877C73.3524 13.436 72.8812 13.9327 72.533 14.5779C72.195 15.2129 72.026 15.9606 72.026 16.8209C72.026 17.671 72.195 18.4187 72.533 19.0639C72.8812 19.7092 73.3524 20.2059 73.9464 20.5541C74.5507 20.9024 75.2266 21.0765 75.9743 21.0765ZM85.5168 21.0458H89.2653V22.1826H84.1187V11.4746H85.5168V21.0458ZM98.0013 19.8014H93.331L92.4707 22.1826H90.9958L94.8673 11.5361H96.4804L100.337 22.1826H98.8617L98.0013 19.8014ZM97.6019 18.6645L95.6662 13.2567L93.7304 18.6645H97.6019ZM106.341 22.2902C105.634 22.2902 104.999 22.1673 104.436 21.9214C103.883 21.6654 103.447 21.3172 103.13 20.8768C102.812 20.4261 102.649 19.9089 102.638 19.3251H104.129C104.18 19.827 104.385 20.252 104.743 20.6002C105.112 20.9382 105.644 21.1072 106.341 21.1072C107.007 21.1072 107.529 20.9433 107.908 20.6156C108.297 20.2776 108.492 19.8474 108.492 19.3251C108.492 18.9154 108.379 18.5826 108.154 18.3265C107.928 18.0705 107.647 17.8759 107.309 17.7427C106.971 17.6096 106.515 17.4662 105.941 17.3126C105.235 17.1282 104.666 16.9438 104.236 16.7595C103.816 16.5751 103.453 16.2884 103.145 15.8992C102.848 15.4997 102.7 14.9671 102.7 14.3014C102.7 13.7176 102.848 13.2004 103.145 12.7497C103.442 12.2991 103.857 11.9509 104.39 11.7051C104.933 11.4593 105.552 11.3364 106.249 11.3364C107.252 11.3364 108.072 11.5873 108.707 12.0891C109.352 12.591 109.716 13.2567 109.797 14.0863H108.261C108.21 13.6766 107.995 13.3182 107.616 13.0109C107.237 12.6934 106.735 12.5347 106.11 12.5347C105.527 12.5347 105.05 12.6883 104.682 12.9956C104.313 13.2926 104.129 13.7125 104.129 14.2553C104.129 14.6445 104.236 14.962 104.451 15.2078C104.676 15.4536 104.948 15.6431 105.265 15.7763C105.593 15.8992 106.049 16.0425 106.633 16.2064C107.339 16.401 107.908 16.5956 108.338 16.7902C108.768 16.9746 109.137 17.2665 109.444 17.6659C109.751 18.0551 109.905 18.5877 109.905 19.2637C109.905 19.786 109.767 20.2776 109.49 20.7385C109.214 21.1994 108.804 21.5732 108.261 21.86C107.718 22.1468 107.078 22.2902 106.341 22.2902ZM123.54 22.1826L120.99 17.8042H119.3V22.1826H117.902V11.4746H121.358C122.167 11.4746 122.849 11.6129 123.402 11.8894C123.965 12.166 124.385 12.5398 124.661 13.0109C124.938 13.482 125.076 14.0198 125.076 14.624C125.076 15.3615 124.861 16.0118 124.431 16.5751C124.011 17.1384 123.376 17.5123 122.526 17.6966L125.214 22.1826H123.54ZM119.3 16.6827H121.358C122.116 16.6827 122.685 16.4983 123.064 16.1296C123.443 15.7506 123.632 15.2488 123.632 14.624C123.632 13.989 123.443 13.4974 123.064 13.1492C122.695 12.801 122.127 12.6268 121.358 12.6268H119.3V16.6827ZM129.568 11.4746V22.1826H128.17V11.4746H129.568ZM137.727 22.2902C136.734 22.2902 135.828 22.0597 135.008 21.5988C134.189 21.1277 133.539 20.4773 133.057 19.6477C132.586 18.8079 132.35 17.8656 132.35 16.8209C132.35 15.7763 132.586 14.8391 133.057 14.0095C133.539 13.1697 134.189 12.5193 135.008 12.0584C135.828 11.5873 136.734 11.3517 137.727 11.3517C138.731 11.3517 139.643 11.5873 140.462 12.0584C141.281 12.5193 141.927 13.1645 142.398 13.9941C142.869 14.8237 143.105 15.766 143.105 16.8209C143.105 17.8759 142.869 18.8181 142.398 19.6477C141.927 20.4773 141.281 21.1277 140.462 21.5988C139.643 22.0597 138.731 22.2902 137.727 22.2902ZM137.727 21.0765C138.475 21.0765 139.146 20.9024 139.74 20.5541C140.344 20.2059 140.815 19.7092 141.153 19.0639C141.502 18.4187 141.676 17.671 141.676 16.8209C141.676 15.9606 141.502 15.2129 141.153 14.5779C140.815 13.9327 140.349 13.436 139.755 13.0877C139.161 12.7395 138.485 12.5654 137.727 12.5654C136.97 12.5654 136.294 12.7395 135.7 13.0877C135.106 13.436 134.634 13.9327 134.286 14.5779C133.948 15.2129 133.779 15.9606 133.779 16.8209C133.779 17.671 133.948 18.4187 134.286 19.0639C134.634 19.7092 135.106 20.2059 135.7 20.5541C136.304 20.9024 136.98 21.0765 137.727 21.0765ZM149.267 22.2902C148.56 22.2902 147.925 22.1673 147.362 21.9214C146.809 21.6654 146.374 21.3172 146.056 20.8768C145.739 20.4261 145.575 19.9089 145.565 19.3251H147.055C147.106 19.827 147.311 20.252 147.669 20.6002C148.038 20.9382 148.571 21.1072 149.267 21.1072C149.933 21.1072 150.455 20.9433 150.834 20.6156C151.223 20.2776 151.418 19.8474 151.418 19.3251C151.418 18.9154 151.305 18.5826 151.08 18.3265C150.855 18.0705 150.573 17.8759 150.235 17.7427C149.897 17.6096 149.441 17.4662 148.868 17.3126C148.161 17.1282 147.593 16.9438 147.162 16.7595C146.742 16.5751 146.379 16.2884 146.072 15.8992C145.775 15.4997 145.626 14.9671 145.626 14.3014C145.626 13.7176 145.775 13.2004 146.072 12.7497C146.369 12.2991 146.783 11.9509 147.316 11.7051C147.859 11.4593 148.479 11.3364 149.175 11.3364C150.179 11.3364 150.998 11.5873 151.633 12.0891C152.278 12.591 152.642 13.2567 152.724 14.0863H151.188C151.136 13.6766 150.921 13.3182 150.542 13.0109C150.163 12.6934 149.661 12.5347 149.037 12.5347C148.453 12.5347 147.977 12.6883 147.608 12.9956C147.239 13.2926 147.055 13.7125 147.055 14.2553C147.055 14.6445 147.162 14.962 147.377 15.2078C147.603 15.4536 147.874 15.6431 148.192 15.7763C148.519 15.8992 148.975 16.0425 149.559 16.2064C150.266 16.401 150.834 16.5956 151.264 16.7902C151.694 16.9746 152.063 17.2665 152.37 17.6659C152.678 18.0551 152.831 18.5877 152.831 19.2637C152.831 19.786 152.693 20.2776 152.417 20.7385C152.14 21.1994 151.73 21.5732 151.188 21.86C150.645 22.1468 150.005 22.2902 149.267 22.2902Z" fill="#0D004D"/>
</svg>
