<svg width="132" height="29" viewBox="0 0 132 29" fill="none" xmlns="http://www.w3.org/2000/svg">
<path fill-rule="evenodd" clip-rule="evenodd" d="M8.52725 0H4.31643C1.93852 0.0147123 0.014412 1.97893 0 4.40639V8.70499C0.0144756 11.1302 1.94066 13.0906 4.31643 13.0979H8.52725C9.67082 13.1015 10.7688 12.6402 11.5786 11.816C12.3885 10.9918 12.8437 9.8724 12.8437 8.70499V4.40639C12.8364 1.97588 10.9081 0.00739887 8.52725 0ZM10.5205 8.70502C10.5275 9.25057 10.3211 9.77645 9.94689 10.166C9.5727 10.5556 9.06173 10.7767 8.52728 10.7802H4.31645C3.77405 10.7913 3.25065 10.5763 2.86704 10.1846C2.48343 9.79304 2.27275 9.25873 2.28364 8.70502V4.40643C2.28354 3.8597 2.49896 3.33593 2.88137 2.95315C3.26378 2.57038 3.78099 2.36081 4.31645 2.37167H8.52728C9.6251 2.37902 10.5133 3.28572 10.5205 4.40643V8.70502ZM28.433 4.4064V8.69151C28.447 9.85661 28.0071 10.9797 27.21 11.8137C26.4129 12.6476 25.3238 13.1241 24.1825 13.1383H22.4401C21.8498 13.0738 21.4022 12.5653 21.4022 11.9592C21.4022 11.3532 21.8498 10.8447 22.4401 10.7802H24.1297C24.6642 10.7766 25.1752 10.5556 25.5493 10.166C25.9235 9.77641 26.13 9.25054 26.1229 8.70499V4.4064C26.1087 3.2887 25.2246 2.38616 24.1297 2.37164H19.9189C18.8181 2.37164 17.9257 3.28263 17.9257 4.4064V10.8341C17.9042 11.4858 17.3765 12.0006 16.7377 11.9929C16.4307 11.9859 16.1393 11.8537 15.9285 11.6258C15.7177 11.398 15.605 11.0934 15.6157 10.7802V4.4064C15.6122 3.23899 16.064 2.11817 16.8714 1.29142C17.6788 0.46467 18.7753 -3.20878e-06 19.9189 2.2836e-06H24.1297C26.4879 0.0571632 28.3842 1.99895 28.433 4.4064ZM19.9189 15.3483H24.1297C26.5055 15.3556 28.4317 17.3159 28.4462 19.7412V24.0398C28.4317 26.4672 26.5076 28.4315 24.1297 28.4462H19.9189C17.5432 28.4314 15.6229 26.4651 15.6157 24.0398V19.7412C15.6157 17.315 17.5423 15.3483 19.9189 15.3483ZM25.5431 25.4825C25.9177 25.1002 26.1265 24.5805 26.123 24.0398V19.7412C26.123 19.2015 25.913 18.684 25.5392 18.3024C25.1654 17.9208 24.6584 17.7064 24.1298 17.7064H19.9189C18.8181 17.7064 17.9257 18.6174 17.9257 19.7412V24.0398C17.9222 24.5805 18.131 25.1002 18.5056 25.4825C18.8802 25.8649 19.3892 26.0781 19.9189 26.0745H24.1298C24.6595 26.0781 25.1685 25.8649 25.5431 25.4825ZM0 24.0263V19.7412C-5.38024e-06 18.5738 0.45518 17.4544 1.26505 16.6302C2.07492 15.806 3.17285 15.3447 4.31643 15.3483H6.04564C6.48776 15.3 6.91812 15.5135 7.15399 15.8983C7.38986 16.2831 7.38986 16.7716 7.15399 17.1564C6.91812 17.5412 6.48776 17.7548 6.04564 17.7065H4.31643C3.21345 17.7064 2.31727 18.6153 2.31001 19.7412V23.9859C2.33806 25.1028 3.22216 25.9994 4.31643 26.0207H8.55365C9.08457 26.0243 9.59495 25.8115 9.97161 25.4295C10.3483 25.0475 10.5601 24.5279 10.5601 23.9859V17.6121C10.474 17.1362 10.6799 16.6545 11.0803 16.3953C11.4808 16.1362 11.9953 16.1514 12.3803 16.4339C12.7653 16.7164 12.9435 17.2094 12.8305 17.6795V24.0263C12.8305 26.4599 10.8979 28.4327 8.51405 28.4327H4.31643C1.95314 28.3827 0.0490321 26.4389 0 24.0263Z" fill="#FAFAFA"/>
<path d="M42.9655 19.425H41.7719L36.9711 12.1451V19.425H35.7775V10.2694H36.9711L41.7719 17.5361V10.2694H42.9655V19.425ZM46.9809 10.2825V19.425H45.7873V10.2825H46.9809ZM49.3563 14.8472C49.3563 13.9552 49.5574 13.1551 49.9597 12.4468C50.3619 11.7297 50.9085 11.1701 51.5993 10.7678C52.2989 10.3656 53.0728 10.1645 53.921 10.1645C54.9179 10.1645 55.7879 10.4049 56.5312 10.8859C57.2745 11.3668 57.8167 12.0489 58.1577 12.9321H56.728C56.4744 12.3812 56.1071 11.9571 55.6262 11.6598C55.154 11.3625 54.5856 11.2138 53.921 11.2138C53.2826 11.2138 52.7099 11.3625 52.2027 11.6598C51.6955 11.9571 51.2976 12.3812 51.009 12.9321C50.7205 13.4743 50.5762 14.1126 50.5762 14.8472C50.5762 15.573 50.7205 16.2113 51.009 16.7622C51.2976 17.3044 51.6955 17.7241 52.2027 18.0215C52.7099 18.3188 53.2826 18.4674 53.921 18.4674C54.5856 18.4674 55.154 18.3231 55.6262 18.0346C56.1071 17.7373 56.4744 17.3131 56.728 16.7622H58.1577C57.8167 17.6367 57.2745 18.3144 56.5312 18.7953C55.7879 19.2676 54.9179 19.5037 53.921 19.5037C53.0728 19.5037 52.2989 19.3069 51.5993 18.9134C50.9085 18.5112 50.3619 17.9559 49.9597 17.2476C49.5574 16.5393 49.3563 15.7391 49.3563 14.8472ZM64.8665 19.5168C64.0182 19.5168 63.2444 19.32 62.5448 18.9265C61.8452 18.5243 61.2899 17.969 60.879 17.2607C60.4767 16.5436 60.2756 15.7391 60.2756 14.8472C60.2756 13.9552 60.4767 13.1551 60.879 12.4468C61.2899 11.7297 61.8452 11.1745 62.5448 10.781C63.2444 10.3787 64.0182 10.1776 64.8665 10.1776C65.7234 10.1776 66.5017 10.3787 67.2013 10.781C67.9008 11.1745 68.4517 11.7254 68.854 12.4337C69.2562 13.142 69.4574 13.9465 69.4574 14.8472C69.4574 15.7479 69.2562 16.5524 68.854 17.2607C68.4517 17.969 67.9008 18.5243 67.2013 18.9265C66.5017 19.32 65.7234 19.5168 64.8665 19.5168ZM64.8665 18.4805C65.5048 18.4805 66.0776 18.3319 66.5848 18.0346C67.1007 17.7373 67.503 17.3131 67.7915 16.7622C68.0888 16.2113 68.2375 15.573 68.2375 14.8472C68.2375 14.1126 68.0888 13.4743 67.7915 12.9321C67.503 12.3812 67.1051 11.9571 66.5979 11.6598C66.0907 11.3625 65.5136 11.2138 64.8665 11.2138C64.2194 11.2138 63.6422 11.3625 63.135 11.6598C62.6279 11.9571 62.2256 12.3812 61.9283 12.9321C61.6397 13.4743 61.4954 14.1126 61.4954 14.8472C61.4954 15.573 61.6397 16.2113 61.9283 16.7622C62.2256 17.3131 62.6279 17.7373 63.135 18.0346C63.651 18.3319 64.2281 18.4805 64.8665 18.4805ZM73.0138 18.4543H76.2143V19.425H71.8201V10.2825H73.0138V18.4543ZM83.6731 17.3918H79.6855L78.951 19.425H77.6918L80.9972 10.335H82.3745L85.6668 19.425H84.4076L83.6731 17.3918ZM83.332 16.4212L81.6793 11.8041L80.0266 16.4212H83.332ZM90.7932 19.5168C90.1899 19.5168 89.6477 19.4118 89.1668 19.202C88.6945 18.9834 88.3229 18.686 88.0518 18.31C87.7807 17.9253 87.6408 17.4837 87.6321 16.9852H88.9044C88.9481 17.4137 89.123 17.7766 89.4291 18.0739C89.7439 18.3625 90.1986 18.5068 90.7932 18.5068C91.3616 18.5068 91.8076 18.3669 92.1312 18.087C92.4635 17.7985 92.6296 17.4312 92.6296 16.9852C92.6296 16.6354 92.5334 16.3512 92.341 16.1326C92.1486 15.914 91.9082 15.7479 91.6196 15.6342C91.331 15.5205 90.9419 15.3981 90.4522 15.2669C89.8488 15.1095 89.3635 14.9521 88.9962 14.7947C88.6377 14.6373 88.3273 14.3925 88.0649 14.0602C87.8113 13.7191 87.6845 13.2644 87.6845 12.696C87.6845 12.1976 87.8113 11.756 88.0649 11.3712C88.3185 10.9865 88.6727 10.6891 89.1274 10.4793C89.5909 10.2694 90.1199 10.1645 90.7145 10.1645C91.5715 10.1645 92.2711 10.3787 92.8132 10.8072C93.3641 11.2357 93.6746 11.8041 93.7445 12.5124H92.4328C92.3891 12.1626 92.2055 11.8565 91.8819 11.5942C91.5584 11.3231 91.1299 11.1876 90.5965 11.1876C90.098 11.1876 89.6914 11.3187 89.3766 11.5811C89.0618 11.8347 88.9044 12.1932 88.9044 12.6567C88.9044 12.989 88.9962 13.26 89.1799 13.4699C89.3723 13.6798 89.604 13.8416 89.8751 13.9552C90.1549 14.0602 90.544 14.1826 91.0425 14.3225C91.6458 14.4887 92.1312 14.6548 92.4984 14.8209C92.8657 14.9783 93.1805 15.2276 93.4428 15.5686C93.7052 15.9009 93.8363 16.3556 93.8363 16.9328C93.8363 17.3787 93.7183 17.7985 93.4822 18.192C93.2461 18.5855 92.8963 18.9047 92.4328 19.1495C91.9694 19.3944 91.4229 19.5168 90.7932 19.5168ZM105.478 19.425L103.3 15.6867H101.858V19.425H100.664V10.2825H103.615C104.306 10.2825 104.887 10.4006 105.36 10.6367C105.841 10.8728 106.199 11.192 106.435 11.5942C106.671 11.9965 106.789 12.4555 106.789 12.9715C106.789 13.6011 106.606 14.1564 106.239 14.6373C105.88 15.1183 105.338 15.4374 104.612 15.5948L106.907 19.425H105.478ZM101.858 14.7291H103.615C104.262 14.7291 104.748 14.5717 105.071 14.2569C105.395 13.9334 105.556 13.5049 105.556 12.9715C105.556 12.4293 105.395 12.0096 105.071 11.7123C104.756 11.4149 104.271 11.2663 103.615 11.2663H101.858V14.7291ZM110.625 10.2825V19.425H109.431V10.2825H110.625ZM117.591 19.5168C116.743 19.5168 115.969 19.32 115.269 18.9265C114.57 18.5243 114.015 17.969 113.604 17.2607C113.201 16.5436 113 15.7391 113 14.8472C113 13.9552 113.201 13.1551 113.604 12.4468C114.015 11.7297 114.57 11.1745 115.269 10.781C115.969 10.3787 116.743 10.1776 117.591 10.1776C118.448 10.1776 119.226 10.3787 119.926 10.781C120.625 11.1745 121.176 11.7254 121.579 12.4337C121.981 13.142 122.182 13.9465 122.182 14.8472C122.182 15.7479 121.981 16.5524 121.579 17.2607C121.176 17.969 120.625 18.5243 119.926 18.9265C119.226 19.32 118.448 19.5168 117.591 19.5168ZM117.591 18.4805C118.229 18.4805 118.802 18.3319 119.309 18.0346C119.825 17.7373 120.228 17.3131 120.516 16.7622C120.813 16.2113 120.962 15.573 120.962 14.8472C120.962 14.1126 120.813 13.4743 120.516 12.9321C120.228 12.3812 119.83 11.9571 119.322 11.6598C118.815 11.3625 118.238 11.2138 117.591 11.2138C116.944 11.2138 116.367 11.3625 115.86 11.6598C115.352 11.9571 114.95 12.3812 114.653 12.9321C114.364 13.4743 114.22 14.1126 114.22 14.8472C114.22 15.573 114.364 16.2113 114.653 16.7622C114.95 17.3131 115.352 17.7373 115.86 18.0346C116.376 18.3319 116.953 18.4805 117.591 18.4805ZM127.444 19.5168C126.84 19.5168 126.298 19.4118 125.817 19.202C125.345 18.9834 124.973 18.686 124.702 18.31C124.431 17.9253 124.291 17.4837 124.282 16.9852H125.555C125.598 17.4137 125.773 17.7766 126.079 18.0739C126.394 18.3625 126.849 18.5068 127.444 18.5068C128.012 18.5068 128.458 18.3669 128.781 18.087C129.114 17.7985 129.28 17.4312 129.28 16.9852C129.28 16.6354 129.184 16.3512 128.991 16.1326C128.799 15.914 128.558 15.7479 128.27 15.6342C127.981 15.5205 127.592 15.3981 127.103 15.2669C126.499 15.1095 126.014 14.9521 125.647 14.7947C125.288 14.6373 124.978 14.3925 124.715 14.0602C124.462 13.7191 124.335 13.2644 124.335 12.696C124.335 12.1976 124.462 11.756 124.715 11.3712C124.969 10.9865 125.323 10.6891 125.778 10.4793C126.241 10.2694 126.77 10.1645 127.365 10.1645C128.222 10.1645 128.921 10.3787 129.464 10.8072C130.014 11.2357 130.325 11.8041 130.395 12.5124H129.083C129.039 12.1626 128.856 11.8565 128.532 11.5942C128.209 11.3231 127.78 11.1876 127.247 11.1876C126.748 11.1876 126.342 11.3187 126.027 11.5811C125.712 11.8347 125.555 12.1932 125.555 12.6567C125.555 12.989 125.647 13.26 125.83 13.4699C126.023 13.6798 126.254 13.8416 126.525 13.9552C126.805 14.0602 127.194 14.1826 127.693 14.3225C128.296 14.4887 128.781 14.6548 129.149 14.8209C129.516 14.9783 129.831 15.2276 130.093 15.5686C130.355 15.9009 130.487 16.3556 130.487 16.9328C130.487 17.3787 130.369 17.7985 130.133 18.192C129.896 18.5855 129.547 18.9047 129.083 19.1495C128.62 19.3944 128.073 19.5168 127.444 19.5168Z" fill="#FAFAFA"/>
</svg>
